{
  "version": "1.dev.1add965",
  "modules": [
    {
      "id": 11,
      "plugin": "RobRichards",
      "version": "1.0.0",
      "model": "mood",
      "params": [
        {
          "id": 0,
          "value": 34.2901459
        },
        {
          "id": 1,
          "value": 89.4715347
        },
        {
          "id": 2,
          "value": 78.5137405
        },
        {
          "id": 3,
          "value": 75.9862595
        },
        {
          "id": 4,
          "value": 106.385521
        },
        {
          "id": 5,
          "value": 108.258659
        },
        {
          "id": 6,
          "value": 2.0
        },
        {
          "id": 7,
          "value": 2.0
        },
        {
          "id": 8,
          "value": 1.0
        },
        {
          "id": 9,
          "value": 0.0
        },
        {
          "id": 10,
          "value": 1.0
        }
      ],
      "leftModuleId": 18,
      "rightModuleId": 15,
      "pos": [
        12,
        0
      ]
    },
    {
      "id": 14,
      "plugin": "Core",
      "version": "1.1.6",
      "model": "MIDIToCVInterface",
      "params": [],
      "leftModuleId": 16,
      "data": {
        "channels": 1,
        "polyMode": 0,
        "clockDivision": 24,
        "lastPitch": 8192,
        "lastMod": 0,
        "midi": {
          "driver": 1,
          "deviceName": "IAC Driver IAC Bus 1",
          "channel": -1
        }
      },
      "pos": [
        38,
        0
      ]
    },
    {
      "id": 15,
      "plugin": "Bogaudio",
      "version": "1.1.25",
      "model": "Bogaudio-AddrSeq",
      "params": [
        {
          "id": 0,
          "value": 8.0
        },
        {
          "id": 1,
          "value": 1.0
        },
        {
          "id": 2,
          "value": 0.0
        },
        {
          "id": 3,
          "value": 0.182999969
        },
        {
          "id": 4,
          "value": 0.42900005
        },
        {
          "id": 5,
          "value": 0.198000044
        },
        {
          "id": 6,
          "value": 0.260999858
        },
        {
          "id": 7,
          "value": 0.341999978
        },
        {
          "id": 8,
          "value": 0.501000047
        },
        {
          "id": 9,
          "value": 0.312000006
        },
        {
          "id": 10,
          "value": 0.572999954
        }
      ],
      "leftModuleId": 11,
      "rightModuleId": 16,
      "data": {
        "select_on_clock": false,
        "triggered_select": false,
        "range_offset": 0.0,
        "range_scale": 10.0
      },
      "pos": [
        24,
        0
      ]
    },
    {
      "id": 16,
      "plugin": "Ohmer",
      "version": "1.1.3.1",
      "model": "KlokSpid",
      "params": [
        {
          "id": 1,
          "value": 0.0
        }
      ],
      "leftModuleId": 15,
      "rightModuleId": 14,
      "data": {
        "Theme": 0,
        "bipolarCV": true,
        "pulseDurationExt": 5,
        "outVoltage": 5.0,
        "defOutRatios": false,
        "out1Ratio": 9,
        "out2Ratio": 12,
        "out3Ratio": 13,
        "out4Ratio": 15,
        "jack4LFO": 0,
        "jack4LFObipolar": true,
        "transportTrig": false,
        "Ratio": 0,
        "BPM": 120,
        "runBPMOnInit": true
      },
      "pos": [
        30,
        0
      ]
    },
    {
      "id": 18,
      "plugin": "RobRichards",
      "version": "1.0.0",
      "model": "darkworld",
      "params": [
        {
          "id": 0,
          "value": 90.6780014
        },
        {
          "id": 1,
          "value": 127.0
        },
        {
          "id": 2,
          "value": 127.0
        },
        {
          "id": 3,
          "value": 63.6270027
        },
        {
          "id": 4,
          "value": 53.9115067
        },
        {
          "id": 5,
          "value": 35.4330101
        },
        {
          "id": 6,
          "value": 2.0
        },
        {
          "id": 7,
          "value": 3.0
        },
        {
          "id": 8,
          "value": 3.0
        },
        {
          "id": 9,
          "value": 0.0
        },
        {
          "id": 10,
          "value": 1.0
        }
      ],
      "rightModuleId": 11,
      "pos": [
        0,
        0
      ]
    }
  ],
  "cables": [
    {
      "id": 0,
      "outputModuleId": 14,
      "outputId": 7,
      "inputModuleId": 16,
      "inputId": 0,
      "color": "#c9b70e"
    },
    {
      "id": 3,
      "outputModuleId": 16,
      "outputId": 1,
      "inputModuleId": 15,
      "inputId": 0,
      "color": "#0986ad"
    },
    {
      "id": 7,
      "outputModuleId": 15,
      "outputId": 0,
      "inputModuleId": 11,
      "inputId": 4,
      "color": "#0986ad"
    }
  ]
}