{
  "version": "1.1.6",
  "modules": [
    {
      "id": 6,
      "plugin": "Fundamental",
      "version": "1.4.0",
      "model": "ADSR",
      "params": [
        {
          "id": 0,
          "value": 0.258000046
        },
        {
          "id": 1,
          "value": 0.743000448
        },
        {
          "id": 2,
          "value": 0.539000094
        },
        {
          "id": 3,
          "value": 0.576500058
        }
      ],
      "leftModuleId": 5,
      "rightModuleId": 42,
      "pos": [
        8,
        0
      ]
    },
    {
      "id": 7,
      "plugin": "Fundamental",
      "version": "1.4.0",
      "model": "Scope",
      "params": [
        {
          "id": 0,
          "value": 0.0
        },
        {
          "id": 1,
          "value": 0.0
        },
        {
          "id": 2,
          "value": 0.0
        },
        {
          "id": 3,
          "value": 0.0
        },
        {
          "id": 4,
          "value": 14.0
        },
        {
          "id": 5,
          "value": 0.0
        },
        {
          "id": 6,
          "value": 0.0
        },
        {
          "id": 7,
          "value": 0.0
        }
      ],
      "leftModuleId": 43,
      "rightModuleId": 40,
      "data": {
        "lissajous": 0,
        "external": 0
      },
      "pos": [
        23,
        0
      ]
    },
    {
      "id": 40,
      "plugin": "RobRichards",
      "version": "1.0.8",
      "model": "cxm1978",
      "params": [
        {
          "id": 0,
          "value": 127.0
        },
        {
          "id": 1,
          "value": 127.0
        },
        {
          "id": 2,
          "value": 127.0
        },
        {
          "id": 3,
          "value": 127.0
        },
        {
          "id": 4,
          "value": 127.0
        },
        {
          "id": 5,
          "value": 127.0
        },
        {
          "id": 6,
          "value": 1.0
        },
        {
          "id": 7,
          "value": 1.0
        },
        {
          "id": 8,
          "value": 1.0
        },
        {
          "id": 9,
          "value": 1.0
        },
        {
          "id": 10,
          "value": 1.0
        },
        {
          "id": 11,
          "value": 0.0
        },
        {
          "id": 12,
          "value": 0.0
        }
      ],
      "leftModuleId": 7,
      "pos": [
        36,
        0
      ]
    },
    {
      "id": 5,
      "plugin": "Core",
      "version": "1.1.6",
      "model": "MIDIToCVInterface",
      "params": [],
      "rightModuleId": 6,
      "data": {
        "channels": 1,
        "polyMode": 0,
        "clockDivision": 24,
        "lastPitch": 8192,
        "lastMod": 0,
        "midi": {
          "driver": -11,
          "deviceName": "QWERTY keyboard (US)",
          "channel": -1
        }
      },
      "pos": [
        0,
        0
      ]
    },
    {
      "id": 42,
      "plugin": "CountModula",
      "version": "1.13.0",
      "model": "VoltageInverter",
      "params": [],
      "leftModuleId": 6,
      "rightModuleId": 43,
      "data": {
        "moduleVersion": 1,
        "theme": 0
      },
      "pos": [
        16,
        0
      ]
    },
    {
      "id": 43,
      "plugin": "Bogaudio",
      "version": "1.1.37",
      "model": "Bogaudio-Offset",
      "params": [
        {
          "id": 0,
          "value": 0.497999728
        },
        {
          "id": 1,
          "value": 0.223606795
        }
      ],
      "leftModuleId": 42,
      "rightModuleId": 7,
      "data": {
        "disableOutputLimit": false,
        "offset_first": false
      },
      "pos": [
        20,
        0
      ]
    }
  ],
  "cables": [
    {
      "id": 23,
      "outputModuleId": 5,
      "outputId": 6,
      "inputModuleId": 6,
      "inputId": 5,
      "color": "#c91847"
    },
    {
      "id": 19,
      "outputModuleId": 5,
      "outputId": 1,
      "inputModuleId": 6,
      "inputId": 4,
      "color": "#c9b70e"
    },
    {
      "id": 34,
      "outputModuleId": 6,
      "outputId": 0,
      "inputModuleId": 42,
      "inputId": 3,
      "color": "#c9b70e"
    },
    {
      "id": 41,
      "outputModuleId": 43,
      "outputId": 0,
      "inputModuleId": 7,
      "inputId": 0,
      "color": "#0986ad"
    },
    {
      "id": 42,
      "outputModuleId": 42,
      "outputId": 3,
      "inputModuleId": 43,
      "inputId": 2,
      "color": "#c9b70e"
    },
    {
      "id": 43,
      "outputModuleId": 43,
      "outputId": 0,
      "inputModuleId": 40,
      "inputId": 3,
      "color": "#0c8e15"
    },
    {
      "id": 44,
      "outputModuleId": 43,
      "outputId": 0,
      "inputModuleId": 40,
      "inputId": 4,
      "color": "#c91847"
    },
    {
      "id": 45,
      "outputModuleId": 43,
      "outputId": 0,
      "inputModuleId": 40,
      "inputId": 5,
      "color": "#0986ad"
    },
    {
      "id": 46,
      "outputModuleId": 43,
      "outputId": 0,
      "inputModuleId": 40,
      "inputId": 6,
      "color": "#c9b70e"
    },
    {
      "id": 47,
      "outputModuleId": 43,
      "outputId": 0,
      "inputModuleId": 40,
      "inputId": 7,
      "color": "#0c8e15"
    },
    {
      "id": 48,
      "outputModuleId": 43,
      "outputId": 0,
      "inputModuleId": 40,
      "inputId": 8,
      "color": "#c91847"
    }
  ]
}