{
  "version": "1.1.1",
  "modules": [
    {
      "id": 1,
      "plugin": "Core",
      "version": "1.0.0",
      "model": "AudioInterface",
      "params": [],
      "leftModuleId": 2,
      "data": {
        "audio": {
          "driver": 5,
          "deviceName": "Universal Audio, Inc.: Universal Audio Thunderbolt",
          "offset": 0,
          "maxChannels": 8,
          "sampleRate": 44100,
          "blockSize": 256
        }
      },
      "pos": [
        78,
        0
      ]
    },
    {
      "id": 2,
      "plugin": "Fundamental",
      "version": "1.0.1",
      "model": "VCMixer",
      "params": [
        {
          "id": 0,
          "value": 1.25200033
        },
        {
          "id": 1,
          "value": 0.886712253
        },
        {
          "id": 2,
          "value": 0.964494109
        },
        {
          "id": 3,
          "value": 0.0
        },
        {
          "id": 4,
          "value": 0.0
        }
      ],
      "rightModuleId": 1,
      "pos": [
        68,
        0
      ]
    },
    {
      "id": 6,
      "plugin": "Fundamental",
      "version": "1.0.1",
      "model": "ADSR",
      "params": [
        {
          "id": 0,
          "value": 0.0
        },
        {
          "id": 1,
          "value": 0.597500026
        },
        {
          "id": 2,
          "value": 0.322488159
        },
        {
          "id": 3,
          "value": 0.301753521
        }
      ],
      "leftModuleId": 19,
      "rightModuleId": 13,
      "pos": [
        52,
        0
      ]
    },
    {
      "id": 13,
      "plugin": "Fundamental",
      "version": "1.0.1",
      "model": "VCA-1",
      "params": [
        {
          "id": 0,
          "value": 0.563500047
        },
        {
          "id": 1,
          "value": 1.0
        }
      ],
      "leftModuleId": 6,
      "pos": [
        60,
        0
      ]
    },
    {
      "id": 16,
      "plugin": "Fundamental",
      "version": "1.0.1",
      "model": "VCO2",
      "params": [
        {
          "id": 0,
          "value": 1.0
        },
        {
          "id": 1,
          "value": 1.0
        },
        {
          "id": 2,
          "value": -32.7239761
        },
        {
          "id": 3,
          "value": 1.11749935
        },
        {
          "id": 4,
          "value": 0.0
        }
      ],
      "leftModuleId": 18,
      "rightModuleId": 20,
      "pos": [
        32,
        0
      ]
    },
    {
      "id": 17,
      "plugin": "Fundamental",
      "version": "1.0.1",
      "model": "SEQ3",
      "params": [
        {
          "id": 0,
          "value": 2.75600076
        },
        {
          "id": 1,
          "value": 0.0
        },
        {
          "id": 2,
          "value": 0.0
        },
        {
          "id": 3,
          "value": 8.0
        },
        {
          "id": 4,
          "value": 0.0
        },
        {
          "id": 5,
          "value": 10.0
        },
        {
          "id": 6,
          "value": 10.0
        },
        {
          "id": 7,
          "value": 0.0449999981
        },
        {
          "id": 8,
          "value": 10.0
        },
        {
          "id": 9,
          "value": 3.95499992
        },
        {
          "id": 10,
          "value": 2.99499512
        },
        {
          "id": 11,
          "value": 2.24999809
        },
        {
          "id": 12,
          "value": 0.0
        },
        {
          "id": 13,
          "value": 0.0
        },
        {
          "id": 14,
          "value": 0.0
        },
        {
          "id": 15,
          "value": 0.0900001824
        },
        {
          "id": 16,
          "value": 4.06499958
        },
        {
          "id": 17,
          "value": 4.91999149
        },
        {
          "id": 18,
          "value": 10.0
        },
        {
          "id": 19,
          "value": 0.0
        },
        {
          "id": 20,
          "value": 0.0
        },
        {
          "id": 21,
          "value": 0.0
        },
        {
          "id": 22,
          "value": 0.0
        },
        {
          "id": 23,
          "value": 0.0
        },
        {
          "id": 24,
          "value": 2.72999907
        },
        {
          "id": 25,
          "value": 0.0300000012
        },
        {
          "id": 26,
          "value": 0.0150000006
        },
        {
          "id": 27,
          "value": 0.0
        },
        {
          "id": 28,
          "value": 0.0
        },
        {
          "id": 29,
          "value": 0.0
        },
        {
          "id": 30,
          "value": 0.0
        },
        {
          "id": 31,
          "value": 0.0
        },
        {
          "id": 32,
          "value": 0.0
        },
        {
          "id": 33,
          "value": 0.0
        },
        {
          "id": 34,
          "value": 0.0
        },
        {
          "id": 35,
          "value": 0.0
        }
      ],
      "leftModuleId": 24,
      "data": {
        "running": false,
        "gates": [
          1,
          1,
          1,
          1,
          1,
          1,
          1,
          1
        ]
      },
      "pos": [
        25,
        1
      ]
    },
    {
      "id": 18,
      "plugin": "Fundamental",
      "version": "1.0.1",
      "model": "VCO",
      "params": [
        {
          "id": 0,
          "value": 1.0
        },
        {
          "id": 1,
          "value": 0.0
        },
        {
          "id": 2,
          "value": -29.3220139
        },
        {
          "id": 3,
          "value": 0.0
        },
        {
          "id": 4,
          "value": 0.0
        },
        {
          "id": 5,
          "value": 0.5
        },
        {
          "id": 6,
          "value": 0.0
        }
      ],
      "rightModuleId": 16,
      "pos": [
        22,
        0
      ]
    },
    {
      "id": 19,
      "plugin": "Fundamental",
      "version": "1.0.1",
      "model": "VCF",
      "params": [
        {
          "id": 0,
          "value": 0.475999147
        },
        {
          "id": 1,
          "value": 0.5
        },
        {
          "id": 2,
          "value": 0.0
        },
        {
          "id": 3,
          "value": -0.341999978
        },
        {
          "id": 4,
          "value": 0.375000417
        }
      ],
      "leftModuleId": 20,
      "rightModuleId": 6,
      "pos": [
        44,
        0
      ]
    },
    {
      "id": 20,
      "plugin": "Fundamental",
      "version": "1.0.1",
      "model": "Unity",
      "params": [
        {
          "id": 0,
          "value": 0.0
        },
        {
          "id": 1,
          "value": 0.0
        }
      ],
      "leftModuleId": 16,
      "rightModuleId": 19,
      "data": {
        "merge": false
      },
      "pos": [
        38,
        0
      ]
    },
    {
      "id": 24,
      "plugin": "Bogaudio",
      "version": "1.1.20",
      "model": "Bogaudio-Manual",
      "params": [
        {
          "id": 0,
          "value": 0.0
        }
      ],
      "rightModuleId": 17,
      "data": {
        "triggerOnLoad": false,
        "shouldTriggerOnLoad": true
      },
      "pos": [
        22,
        1
      ]
    },
    {
      "id": 25,
      "plugin": "Core",
      "version": "1.0.0",
      "model": "Notes",
      "params": [],
      "text": "8 step Drum Machine (DFAM Clone)\n\nHard Sync'd double VCO with a snare \n\nSequencer controls:\nRow 1 velocity of VCA\nRow 2 pitch of tom hits\nRow 3 Noise level of snare\n\nTo start, press the run button on the SEQ-3.\n\n",
      "pos": [
        0,
        0
      ]
    },
    {
      "id": 27,
      "plugin": "Bogaudio",
      "version": "1.1.20",
      "model": "Bogaudio-Noise",
      "params": [],
      "rightModuleId": 28,
      "pos": [
        61,
        1
      ]
    },
    {
      "id": 28,
      "plugin": "Fundamental",
      "version": "1.0.1",
      "model": "VCF",
      "params": [
        {
          "id": 0,
          "value": 0.540999115
        },
        {
          "id": 1,
          "value": 0.413000017
        },
        {
          "id": 2,
          "value": 0.0
        },
        {
          "id": 3,
          "value": -0.0780000836
        },
        {
          "id": 4,
          "value": 0.132999986
        }
      ],
      "leftModuleId": 27,
      "rightModuleId": 31,
      "pos": [
        64,
        1
      ]
    },
    {
      "id": 29,
      "plugin": "Fundamental",
      "version": "1.0.1",
      "model": "VCA-1",
      "params": [
        {
          "id": 0,
          "value": 1.0
        },
        {
          "id": 1,
          "value": 1.0
        }
      ],
      "leftModuleId": 31,
      "pos": [
        80,
        1
      ]
    },
    {
      "id": 31,
      "plugin": "Fundamental",
      "version": "1.0.1",
      "model": "ADSR",
      "params": [
        {
          "id": 0,
          "value": 0.0
        },
        {
          "id": 1,
          "value": 0.379998356
        },
        {
          "id": 2,
          "value": 0.133499965
        },
        {
          "id": 3,
          "value": 0.301499844
        }
      ],
      "leftModuleId": 28,
      "rightModuleId": 29,
      "pos": [
        72,
        1
      ]
    }
  ],
  "cables": [
    {
      "id": 28,
      "outputModuleId": 17,
      "outputId": 1,
      "inputModuleId": 13,
      "inputId": 0,
      "color": "#c91847"
    },
    {
      "id": 33,
      "outputModuleId": 18,
      "outputId": 2,
      "inputModuleId": 16,
      "inputId": 2,
      "color": "#0986ad"
    },
    {
      "id": 34,
      "outputModuleId": 18,
      "outputId": 3,
      "inputModuleId": 16,
      "inputId": 1,
      "color": "#c9b70e"
    },
    {
      "id": 26,
      "outputModuleId": 17,
      "outputId": 0,
      "inputModuleId": 6,
      "inputId": 4,
      "color": "#c9b70e"
    },
    {
      "id": 46,
      "outputModuleId": 24,
      "outputId": 0,
      "inputModuleId": 17,
      "inputId": 2,
      "color": "#0986ad"
    },
    {
      "id": 53,
      "outputModuleId": 18,
      "outputId": 1,
      "inputModuleId": 20,
      "inputId": 2,
      "color": "#c91847"
    },
    {
      "id": 52,
      "outputModuleId": 16,
      "outputId": 0,
      "inputModuleId": 20,
      "inputId": 4,
      "color": "#0c8e15"
    },
    {
      "id": 64,
      "outputModuleId": 20,
      "outputId": 0,
      "inputModuleId": 19,
      "inputId": 3,
      "color": "#0986ad"
    },
    {
      "id": 75,
      "outputModuleId": 29,
      "outputId": 0,
      "inputModuleId": 2,
      "inputId": 2,
      "color": "#c91847"
    },
    {
      "id": 76,
      "outputModuleId": 17,
      "outputId": 3,
      "inputModuleId": 31,
      "inputId": 4,
      "color": "#0986ad"
    },
    {
      "id": 77,
      "outputModuleId": 31,
      "outputId": 0,
      "inputModuleId": 29,
      "inputId": 0,
      "color": "#c9b70e"
    },
    {
      "id": 63,
      "outputModuleId": 28,
      "outputId": 0,
      "inputModuleId": 29,
      "inputId": 1,
      "color": "#0c8e15"
    },
    {
      "id": 78,
      "outputModuleId": 17,
      "outputId": 3,
      "inputModuleId": 31,
      "inputId": 2,
      "color": "#c91847"
    },
    {
      "id": 79,
      "outputModuleId": 17,
      "outputId": 3,
      "inputModuleId": 31,
      "inputId": 3,
      "color": "#0986ad"
    },
    {
      "id": 85,
      "outputModuleId": 17,
      "outputId": 0,
      "inputModuleId": 6,
      "inputId": 2,
      "color": "#c91847"
    },
    {
      "id": 86,
      "outputModuleId": 17,
      "outputId": 0,
      "inputModuleId": 6,
      "inputId": 3,
      "color": "#0986ad"
    },
    {
      "id": 73,
      "outputModuleId": 2,
      "outputId": 0,
      "inputModuleId": 1,
      "inputId": 4,
      "color": "#c9b70e"
    },
    {
      "id": 74,
      "outputModuleId": 2,
      "outputId": 0,
      "inputModuleId": 1,
      "inputId": 5,
      "color": "#0c8e15"
    },
    {
      "id": 54,
      "outputModuleId": 27,
      "outputId": 0,
      "inputModuleId": 28,
      "inputId": 3,
      "color": "#0986ad"
    },
    {
      "id": 36,
      "outputModuleId": 17,
      "outputId": 2,
      "inputModuleId": 16,
      "inputId": 0,
      "color": "#c91847"
    },
    {
      "id": 87,
      "outputModuleId": 17,
      "outputId": 2,
      "inputModuleId": 19,
      "inputId": 0,
      "color": "#c9b70e"
    },
    {
      "id": 29,
      "outputModuleId": 19,
      "outputId": 0,
      "inputModuleId": 13,
      "inputId": 1,
      "color": "#0986ad"
    },
    {
      "id": 5,
      "outputModuleId": 13,
      "outputId": 0,
      "inputModuleId": 2,
      "inputId": 1,
      "color": "#0986ad"
    },
    {
      "id": 88,
      "outputModuleId": 6,
      "outputId": 0,
      "inputModuleId": 2,
      "inputId": 5,
      "color": "#c91847"
    }
  ]
}