{
  "version": "1.1.6",
  "modules": [
    {
      "id": 41,
      "plugin": "RobRichards",
      "version": "1.0.4",
      "model": "genloss",
      "params": [
        {
          "id": 0,
          "value": 0.0
        },
        {
          "id": 1,
          "value": 127.0
        },
        {
          "id": 2,
          "value": 83.5660248
        },
        {
          "id": 3,
          "value": 0.0
        },
        {
          "id": 4,
          "value": 0.0
        },
        {
          "id": 5,
          "value": 76.961998
        },
        {
          "id": 6,
          "value": 2.0
        },
        {
          "id": 7,
          "value": 1.0
        },
        {
          "id": 8,
          "value": 1.0
        },
        {
          "id": 9,
          "value": 0.0
        },
        {
          "id": 10,
          "value": 0.0
        }
      ],
      "rightModuleId": 43,
      "pos": [
        9,
        0
      ]
    },
    {
      "id": 42,
      "plugin": "RobRichards",
      "version": "1.0.4",
      "model": "blooper",
      "params": [
        {
          "id": 0,
          "value": 0.0
        },
        {
          "id": 1,
          "value": 38.4174995
        },
        {
          "id": 2,
          "value": 127.0
        },
        {
          "id": 3,
          "value": 0.0
        },
        {
          "id": 4,
          "value": 0.0
        },
        {
          "id": 5,
          "value": 92.0115128
        },
        {
          "id": 6,
          "value": 1.0
        },
        {
          "id": 7,
          "value": 2.0
        },
        {
          "id": 8,
          "value": 3.0
        },
        {
          "id": 9,
          "value": 0.0
        },
        {
          "id": 10,
          "value": 0.0
        },
        {
          "id": 11,
          "value": 0.0
        },
        {
          "id": 12,
          "value": 0.0
        },
        {
          "id": 13,
          "value": 0.0
        },
        {
          "id": 14,
          "value": 0.0
        }
      ],
      "leftModuleId": 45,
      "rightModuleId": 70,
      "pos": [
        69,
        0
      ]
    },
    {
      "id": 43,
      "plugin": "RobRichards",
      "version": "1.0.4",
      "model": "darkworld",
      "params": [
        {
          "id": 0,
          "value": 25.5270023
        },
        {
          "id": 1,
          "value": 63.4364967
        },
        {
          "id": 2,
          "value": 53.5304947
        },
        {
          "id": 3,
          "value": 27.6225014
        },
        {
          "id": 4,
          "value": 75.2475433
        },
        {
          "id": 5,
          "value": 31.6230011
        },
        {
          "id": 6,
          "value": 2.0
        },
        {
          "id": 7,
          "value": 1.0
        },
        {
          "id": 8,
          "value": 1.0
        },
        {
          "id": 9,
          "value": 0.0
        },
        {
          "id": 10,
          "value": 1.0
        }
      ],
      "leftModuleId": 41,
      "rightModuleId": 44,
      "pos": [
        21,
        0
      ]
    },
    {
      "id": 44,
      "plugin": "RobRichards",
      "version": "1.0.4",
      "model": "warpedvinyl",
      "params": [
        {
          "id": 0,
          "value": 33.1470184
        },
        {
          "id": 1,
          "value": 90.2970047
        },
        {
          "id": 2,
          "value": 96.5834808
        },
        {
          "id": 3,
          "value": 100.012527
        },
        {
          "id": 4,
          "value": 81.3434982
        },
        {
          "id": 5,
          "value": 78.1049805
        },
        {
          "id": 6,
          "value": 5.0
        },
        {
          "id": 7,
          "value": 0.0
        },
        {
          "id": 8,
          "value": 0.0
        }
      ],
      "leftModuleId": 43,
      "rightModuleId": 46,
      "pos": [
        33,
        0
      ]
    },
    {
      "id": 45,
      "plugin": "RobRichards",
      "version": "1.0.4",
      "model": "mood",
      "params": [
        {
          "id": 0,
          "value": 45.8470154
        },
        {
          "id": 1,
          "value": 0.0
        },
        {
          "id": 2,
          "value": 94.1069717
        },
        {
          "id": 3,
          "value": 127.0
        },
        {
          "id": 4,
          "value": 110.236031
        },
        {
          "id": 5,
          "value": 55.8164291
        },
        {
          "id": 6,
          "value": 2.0
        },
        {
          "id": 7,
          "value": 3.0
        },
        {
          "id": 8,
          "value": 3.0
        },
        {
          "id": 9,
          "value": 1.0
        },
        {
          "id": 10,
          "value": 1.0
        }
      ],
      "leftModuleId": 46,
      "rightModuleId": 42,
      "pos": [
        57,
        0
      ]
    },
    {
      "id": 46,
      "plugin": "RobRichards",
      "version": "1.0.4",
      "model": "thermae",
      "params": [
        {
          "id": 0,
          "value": 28.1940193
        },
        {
          "id": 1,
          "value": 73.5250092
        },
        {
          "id": 2,
          "value": 39.4334755
        },
        {
          "id": 3,
          "value": 0.0
        },
        {
          "id": 4,
          "value": 64.0
        },
        {
          "id": 5,
          "value": 78.0969086
        },
        {
          "id": 6,
          "value": 1.0
        },
        {
          "id": 7,
          "value": 1.0
        },
        {
          "id": 8,
          "value": 1.0
        },
        {
          "id": 9,
          "value": 0.0
        },
        {
          "id": 10,
          "value": 1.0
        },
        {
          "id": 11,
          "value": 0.0
        },
        {
          "id": 12,
          "value": 0.0
        }
      ],
      "leftModuleId": 44,
      "rightModuleId": 45,
      "pos": [
        45,
        0
      ]
    },
    {
      "id": 47,
      "plugin": "CountModula",
      "version": "1.9.0",
      "model": "GateSequencer8",
      "params": [
        {
          "id": 0,
          "value": 0.0
        },
        {
          "id": 1,
          "value": 0.0
        },
        {
          "id": 2,
          "value": 0.0
        },
        {
          "id": 3,
          "value": 0.0
        },
        {
          "id": 4,
          "value": 1.0
        },
        {
          "id": 5,
          "value": 0.0
        },
        {
          "id": 6,
          "value": 0.0
        },
        {
          "id": 7,
          "value": 0.0
        },
        {
          "id": 8,
          "value": 1.0
        },
        {
          "id": 9,
          "value": 0.0
        },
        {
          "id": 10,
          "value": 0.0
        },
        {
          "id": 11,
          "value": 0.0
        },
        {
          "id": 12,
          "value": 0.0
        },
        {
          "id": 13,
          "value": 0.0
        },
        {
          "id": 14,
          "value": 0.0
        },
        {
          "id": 15,
          "value": 0.0
        },
        {
          "id": 16,
          "value": 1.0
        },
        {
          "id": 17,
          "value": 0.0
        },
        {
          "id": 18,
          "value": 0.0
        },
        {
          "id": 19,
          "value": 0.0
        },
        {
          "id": 20,
          "value": 0.0
        },
        {
          "id": 21,
          "value": 0.0
        },
        {
          "id": 22,
          "value": 0.0
        },
        {
          "id": 23,
          "value": 0.0
        },
        {
          "id": 24,
          "value": 0.0
        },
        {
          "id": 25,
          "value": 0.0
        },
        {
          "id": 26,
          "value": 0.0
        },
        {
          "id": 27,
          "value": 0.0
        },
        {
          "id": 28,
          "value": 1.0
        },
        {
          "id": 29,
          "value": 0.0
        },
        {
          "id": 30,
          "value": 0.0
        },
        {
          "id": 31,
          "value": 0.0
        },
        {
          "id": 32,
          "value": 1.0
        },
        {
          "id": 33,
          "value": 0.0
        },
        {
          "id": 34,
          "value": 0.0
        },
        {
          "id": 35,
          "value": 0.0
        },
        {
          "id": 36,
          "value": 0.0
        },
        {
          "id": 37,
          "value": 0.0
        },
        {
          "id": 38,
          "value": 0.0
        },
        {
          "id": 39,
          "value": 0.0
        },
        {
          "id": 40,
          "value": 0.0
        },
        {
          "id": 41,
          "value": 0.0
        },
        {
          "id": 42,
          "value": 0.0
        },
        {
          "id": 43,
          "value": 0.0
        },
        {
          "id": 44,
          "value": 1.0
        },
        {
          "id": 45,
          "value": 0.0
        },
        {
          "id": 46,
          "value": 0.0
        },
        {
          "id": 47,
          "value": 0.0
        },
        {
          "id": 48,
          "value": 0.0
        },
        {
          "id": 49,
          "value": 0.0
        },
        {
          "id": 50,
          "value": 0.0
        },
        {
          "id": 51,
          "value": 0.0
        },
        {
          "id": 52,
          "value": 0.0
        },
        {
          "id": 53,
          "value": 0.0
        },
        {
          "id": 54,
          "value": 0.0
        },
        {
          "id": 55,
          "value": 1.0
        },
        {
          "id": 56,
          "value": 0.0
        },
        {
          "id": 57,
          "value": 0.0
        },
        {
          "id": 58,
          "value": 1.0
        },
        {
          "id": 59,
          "value": 0.0
        },
        {
          "id": 60,
          "value": 0.0
        },
        {
          "id": 61,
          "value": 0.0
        },
        {
          "id": 62,
          "value": 0.0
        },
        {
          "id": 63,
          "value": 0.0
        },
        {
          "id": 64,
          "value": 8.0
        },
        {
          "id": 65,
          "value": 0.0
        },
        {
          "id": 66,
          "value": 0.0
        },
        {
          "id": 67,
          "value": 0.0
        },
        {
          "id": 68,
          "value": 0.0
        },
        {
          "id": 69,
          "value": 0.0
        },
        {
          "id": 70,
          "value": 0.0
        },
        {
          "id": 71,
          "value": 1.0
        },
        {
          "id": 72,
          "value": 1.0
        },
        {
          "id": 73,
          "value": 0.0
        },
        {
          "id": 74,
          "value": 0.0
        }
      ],
      "leftModuleId": 69,
      "rightModuleId": 55,
      "data": {
        "moduleVersion": "1.0",
        "currentStep": 6,
        "direction": 0,
        "clockState": true,
        "runState": true,
        "theme": 0
      },
      "pos": [
        22,
        1
      ]
    },
    {
      "id": 50,
      "plugin": "Bogaudio",
      "version": "1.1.31",
      "model": "Bogaudio-VCO",
      "params": [
        {
          "id": 0,
          "value": 0.364500076
        },
        {
          "id": 1,
          "value": 0.0
        },
        {
          "id": 2,
          "value": 0.0
        },
        {
          "id": 3,
          "value": 0.0
        },
        {
          "id": 4,
          "value": 0.0
        },
        {
          "id": 5,
          "value": 1.0
        },
        {
          "id": 6,
          "value": 0.0
        }
      ],
      "leftModuleId": 55,
      "rightModuleId": 51,
      "data": {
        "poly_input": 0
      },
      "pos": [
        64,
        1
      ]
    },
    {
      "id": 51,
      "plugin": "Fundamental",
      "version": "1.4.0",
      "model": "VCF",
      "params": [
        {
          "id": 0,
          "value": 0.713000298
        },
        {
          "id": 1,
          "value": 0.5
        },
        {
          "id": 2,
          "value": 0.0
        },
        {
          "id": 3,
          "value": 0.0
        },
        {
          "id": 4,
          "value": 0.0975000188
        }
      ],
      "leftModuleId": 50,
      "rightModuleId": 60,
      "pos": [
        74,
        1
      ]
    },
    {
      "id": 55,
      "plugin": "Core",
      "version": "1.1.6",
      "model": "MIDIToCVInterface",
      "params": [],
      "leftModuleId": 47,
      "rightModuleId": 50,
      "data": {
        "channels": 1,
        "polyMode": 0,
        "clockDivision": 24,
        "lastPitch": 8192,
        "lastMod": 43,
        "midi": {
          "driver": 1,
          "deviceName": "DX7",
          "channel": 7
        }
      },
      "pos": [
        56,
        1
      ]
    },
    {
      "id": 57,
      "plugin": "Fundamental",
      "version": "1.4.0",
      "model": "VCMixer",
      "params": [
        {
          "id": 0,
          "value": 0.756999493
        },
        {
          "id": 1,
          "value": 0.376332164
        },
        {
          "id": 2,
          "value": 1.0
        },
        {
          "id": 3,
          "value": 1.0
        },
        {
          "id": 4,
          "value": 1.0
        }
      ],
      "leftModuleId": 59,
      "rightModuleId": 58,
      "pos": [
        93,
        1
      ]
    },
    {
      "id": 58,
      "plugin": "Fundamental",
      "version": "1.4.0",
      "model": "Scope",
      "params": [
        {
          "id": 0,
          "value": 1.0
        },
        {
          "id": 1,
          "value": -2.52000284
        },
        {
          "id": 2,
          "value": 2.0
        },
        {
          "id": 3,
          "value": 0.840000868
        },
        {
          "id": 4,
          "value": 14.0
        },
        {
          "id": 5,
          "value": 0.0
        },
        {
          "id": 6,
          "value": 0.0
        },
        {
          "id": 7,
          "value": 0.0
        }
      ],
      "leftModuleId": 57,
      "data": {
        "lissajous": 0,
        "external": 1
      },
      "pos": [
        103,
        1
      ]
    },
    {
      "id": 59,
      "plugin": "Fundamental",
      "version": "1.4.0",
      "model": "VCA-1",
      "params": [
        {
          "id": 0,
          "value": 1.0
        },
        {
          "id": 1,
          "value": 1.0
        }
      ],
      "leftModuleId": 60,
      "rightModuleId": 57,
      "pos": [
        90,
        1
      ]
    },
    {
      "id": 60,
      "plugin": "AS",
      "version": "1.0.4",
      "model": "ADSR",
      "params": [
        {
          "id": 0,
          "value": 0.159000024
        },
        {
          "id": 1,
          "value": 0.368000001
        },
        {
          "id": 2,
          "value": 0.5
        },
        {
          "id": 3,
          "value": 0.317000061
        }
      ],
      "leftModuleId": 51,
      "rightModuleId": 59,
      "pos": [
        82,
        1
      ]
    },
    {
      "id": 62,
      "plugin": "Core",
      "version": "1.1.6",
      "model": "CV-MIDI",
      "params": [],
      "leftModuleId": 72,
      "rightModuleId": 69,
      "data": {
        "midi": {
          "driver": 1,
          "deviceName": "Mother32",
          "channel": 0
        }
      },
      "pos": [
        6,
        1
      ]
    },
    {
      "id": 69,
      "plugin": "Ohmer",
      "version": "1.1.6",
      "model": "KlokSpid",
      "params": [
        {
          "id": 1,
          "value": 0.0
        }
      ],
      "leftModuleId": 62,
      "rightModuleId": 47,
      "data": {
        "Theme": 0,
        "bipolarCV": true,
        "pulseDurationExt": 5,
        "outVoltage": 5.0,
        "defOutRatios": false,
        "out1Ratio": 9,
        "out2Ratio": 12,
        "out3Ratio": 13,
        "out4Ratio": 15,
        "jack4LFO": 0,
        "jack4LFObipolar": true,
        "transportTrig": false,
        "Ratio": 15,
        "BPM": 481,
        "runBPMOnInit": true
      },
      "pos": [
        14,
        1
      ]
    },
    {
      "id": 70,
      "plugin": "Stoermelder-P1",
      "version": "1.5.0",
      "model": "AudioInterface64",
      "params": [],
      "leftModuleId": 42,
      "data": {
        "panelTheme": 0,
        "audio": {
          "driver": 5,
          "deviceName": "Universal Audio, Inc.: Universal Audio Thunderbolt",
          "offset": 0,
          "maxChannels": 64,
          "sampleRate": 48000,
          "blockSize": 256
        }
      },
      "pos": [
        81,
        0
      ]
    },
    {
      "id": 72,
      "plugin": "AS",
      "version": "1.0.4",
      "model": "TriggersMKI",
      "params": [
        {
          "id": 0,
          "value": 10.0
        },
        {
          "id": 1,
          "value": 0.0
        },
        {
          "id": 2,
          "value": 0.0
        }
      ],
      "rightModuleId": 62,
      "data": {
        "run": [
          1
        ]
      },
      "pos": [
        0,
        1
      ]
    }
  ],
  "cables": [
    {
      "id": 9,
      "outputModuleId": 57,
      "outputId": 0,
      "inputModuleId": 58,
      "inputId": 0,
      "color": "#0c8e15"
    },
    {
      "id": 11,
      "outputModuleId": 55,
      "outputId": 1,
      "inputModuleId": 60,
      "inputId": 4,
      "color": "#0986ad"
    },
    {
      "id": 12,
      "outputModuleId": 60,
      "outputId": 0,
      "inputModuleId": 59,
      "inputId": 0,
      "color": "#c9b70e"
    },
    {
      "id": 13,
      "outputModuleId": 51,
      "outputId": 0,
      "inputModuleId": 59,
      "inputId": 1,
      "color": "#0c8e15"
    },
    {
      "id": 14,
      "outputModuleId": 59,
      "outputId": 0,
      "inputModuleId": 57,
      "inputId": 1,
      "color": "#c91847"
    },
    {
      "id": 42,
      "outputModuleId": 70,
      "outputId": 6,
      "inputModuleId": 58,
      "inputId": 1,
      "color": "#0986ad"
    },
    {
      "id": 43,
      "outputModuleId": 57,
      "outputId": 0,
      "inputModuleId": 70,
      "inputId": 28,
      "color": "#c9b70e"
    },
    {
      "id": 54,
      "outputModuleId": 55,
      "outputId": 0,
      "inputModuleId": 50,
      "inputId": 0,
      "color": "#0c8e15"
    },
    {
      "id": 2,
      "outputModuleId": 50,
      "outputId": 3,
      "inputModuleId": 51,
      "inputId": 3,
      "color": "#c91847"
    },
    {
      "id": 53,
      "outputModuleId": 69,
      "outputId": 0,
      "inputModuleId": 47,
      "inputId": 1,
      "color": "#c9b70e"
    },
    {
      "id": 50,
      "outputModuleId": 69,
      "outputId": 0,
      "inputModuleId": 44,
      "inputId": 6,
      "color": "#0c8e15"
    },
    {
      "id": 41,
      "outputModuleId": 69,
      "outputId": 1,
      "inputModuleId": 42,
      "inputId": 6,
      "color": "#0c8e15"
    },
    {
      "id": 55,
      "outputModuleId": 47,
      "outputId": 0,
      "inputModuleId": 45,
      "inputId": 8,
      "color": "#c91847"
    },
    {
      "id": 56,
      "outputModuleId": 47,
      "outputId": 1,
      "inputModuleId": 45,
      "inputId": 7,
      "color": "#0986ad"
    },
    {
      "id": 57,
      "outputModuleId": 47,
      "outputId": 2,
      "inputModuleId": 43,
      "inputId": 8,
      "color": "#c9b70e"
    },
    {
      "id": 58,
      "outputModuleId": 47,
      "outputId": 3,
      "inputModuleId": 43,
      "inputId": 7,
      "color": "#0c8e15"
    },
    {
      "id": 61,
      "outputModuleId": 69,
      "outputId": 3,
      "inputModuleId": 62,
      "inputId": 6,
      "color": "#c9b70e"
    }
  ]
}