{
  "version": "1.1.6",
  "modules": [
    {
      "id": 0,
      "plugin": "RobRichards",
      "version": "1.0.3",
      "model": "mood",
      "params": [
        {
          "id": 0,
          "value": 38.4175262
        },
        {
          "id": 1,
          "value": 63.1825256
        },
        {
          "id": 2,
          "value": 84.518486
        },
        {
          "id": 3,
          "value": 84.3915634
        },
        {
          "id": 4,
          "value": 127.0
        },
        {
          "id": 5,
          "value": 38.226963
        },
        {
          "id": 6,
          "value": 2.0
        },
        {
          "id": 7,
          "value": 1.0
        },
        {
          "id": 8,
          "value": 2.0
        },
        {
          "id": 9,
          "value": 1.0
        },
        {
          "id": 10,
          "value": 1.0
        }
      ],
      "leftModuleId": 2,
      "rightModuleId": 1,
      "pos": [
        38,
        0
      ]
    },
    {
      "id": 1,
      "plugin": "RobRichards",
      "version": "1.0.3",
      "model": "thermae",
      "params": [
        {
          "id": 0,
          "value": 102.044525
        },
        {
          "id": 1,
          "value": 127.0
        },
        {
          "id": 2,
          "value": 0.0
        },
        {
          "id": 3,
          "value": 0.190500006
        },
        {
          "id": 4,
          "value": 92.9559708
        },
        {
          "id": 5,
          "value": 107.624374
        },
        {
          "id": 6,
          "value": 1.0
        },
        {
          "id": 7,
          "value": 3.0
        },
        {
          "id": 8,
          "value": 1.0
        },
        {
          "id": 9,
          "value": 0.0
        },
        {
          "id": 10,
          "value": 1.0
        },
        {
          "id": 11,
          "value": 1.0
        },
        {
          "id": 12,
          "value": 0.0
        }
      ],
      "leftModuleId": 0,
      "rightModuleId": 14,
      "pos": [
        50,
        0
      ]
    },
    {
      "id": 2,
      "plugin": "RobRichards",
      "version": "1.0.3",
      "model": "darkworld",
      "params": [
        {
          "id": 0,
          "value": 57.1500053
        },
        {
          "id": 1,
          "value": 127.0
        },
        {
          "id": 2,
          "value": 126.80954
        },
        {
          "id": 3,
          "value": 88.2015305
        },
        {
          "id": 4,
          "value": 81.3435135
        },
        {
          "id": 5,
          "value": 100.774399
        },
        {
          "id": 6,
          "value": 2.0
        },
        {
          "id": 7,
          "value": 1.0
        },
        {
          "id": 8,
          "value": 1.0
        },
        {
          "id": 9,
          "value": 0.0
        },
        {
          "id": 10,
          "value": 0.0
        }
      ],
      "leftModuleId": 11,
      "rightModuleId": 0,
      "pos": [
        26,
        0
      ]
    },
    {
      "id": 3,
      "plugin": "Core",
      "version": "1.1.6",
      "model": "MIDIToCVInterface",
      "params": [],
      "leftModuleId": 9,
      "data": {
        "channels": 1,
        "polyMode": 0,
        "clockDivision": 24,
        "lastPitch": 8192,
        "lastMod": 0,
        "midi": {
          "driver": 1,
          "deviceName": "IAC Driver IAC Bus 1",
          "channel": -1
        }
      },
      "pos": [
        76,
        0
      ]
    },
    {
      "id": 9,
      "plugin": "Ohmer",
      "version": "1.1.3.1",
      "model": "KlokSpid",
      "params": [
        {
          "id": 1,
          "value": 0.0
        }
      ],
      "leftModuleId": 14,
      "rightModuleId": 3,
      "data": {
        "Theme": 0,
        "bipolarCV": true,
        "pulseDurationExt": 5,
        "outVoltage": 5.0,
        "defOutRatios": false,
        "out1Ratio": 9,
        "out2Ratio": 12,
        "out3Ratio": 13,
        "out4Ratio": 15,
        "jack4LFO": 0,
        "jack4LFObipolar": true,
        "transportTrig": false,
        "Ratio": 2,
        "BPM": 155,
        "runBPMOnInit": true
      },
      "pos": [
        68,
        0
      ]
    },
    {
      "id": 11,
      "plugin": "Bogaudio",
      "version": "1.1.25",
      "model": "Bogaudio-LFO",
      "params": [
        {
          "id": 0,
          "value": 1.1309998
        },
        {
          "id": 1,
          "value": 1.0
        },
        {
          "id": 2,
          "value": 0.00449999981
        },
        {
          "id": 3,
          "value": 0.0
        },
        {
          "id": 4,
          "value": 1.0
        },
        {
          "id": 5,
          "value": 1.0
        }
      ],
      "leftModuleId": 15,
      "rightModuleId": 2,
      "pos": [
        16,
        0
      ]
    },
    {
      "id": 12,
      "plugin": "Fundamental",
      "version": "1.4.0",
      "model": "Scope",
      "params": [
        {
          "id": 0,
          "value": 0.0
        },
        {
          "id": 1,
          "value": 0.0
        },
        {
          "id": 2,
          "value": 0.0
        },
        {
          "id": 3,
          "value": 0.0
        },
        {
          "id": 4,
          "value": 14.0
        },
        {
          "id": 5,
          "value": 0.0
        },
        {
          "id": 6,
          "value": 0.0
        },
        {
          "id": 7,
          "value": 0.0
        }
      ],
      "rightModuleId": 15,
      "data": {
        "lissajous": 0,
        "external": 1
      },
      "pos": [
        0,
        0
      ]
    },
    {
      "id": 14,
      "plugin": "Bogaudio",
      "version": "1.1.25",
      "model": "Bogaudio-AddrSeq",
      "params": [
        {
          "id": 0,
          "value": 4.0
        },
        {
          "id": 1,
          "value": 1.0
        },
        {
          "id": 2,
          "value": 0.0
        },
        {
          "id": 3,
          "value": 0.0
        },
        {
          "id": 4,
          "value": 0.612000287
        },
        {
          "id": 5,
          "value": 0.243000075
        },
        {
          "id": 6,
          "value": 0.0
        },
        {
          "id": 7,
          "value": 0.182999998
        },
        {
          "id": 8,
          "value": 0.194999948
        },
        {
          "id": 9,
          "value": 0.0
        },
        {
          "id": 10,
          "value": 0.0
        }
      ],
      "leftModuleId": 1,
      "rightModuleId": 9,
      "data": {
        "select_on_clock": false,
        "triggered_select": false,
        "range_offset": 0.0,
        "range_scale": 10.0
      },
      "pos": [
        62,
        0
      ]
    },
    {
      "id": 15,
      "plugin": "Bogaudio",
      "version": "1.1.25",
      "model": "Bogaudio-Offset",
      "params": [
        {
          "id": 0,
          "value": -0.258000106
        },
        {
          "id": 1,
          "value": 0.268229961
        }
      ],
      "leftModuleId": 12,
      "rightModuleId": 11,
      "data": {
        "disableOutputLimit": false
      },
      "pos": [
        13,
        0
      ]
    }
  ],
  "cables": [
    {
      "id": 26,
      "outputModuleId": 9,
      "outputId": 0,
      "inputModuleId": 14,
      "inputId": 0,
      "color": "#0c8e15"
    },
    {
      "id": 24,
      "outputModuleId": 15,
      "outputId": 0,
      "inputModuleId": 12,
      "inputId": 0,
      "color": "#0986ad"
    },
    {
      "id": 19,
      "outputModuleId": 11,
      "outputId": 3,
      "inputModuleId": 15,
      "inputId": 2,
      "color": "#c91847"
    },
    {
      "id": 36,
      "outputModuleId": 14,
      "outputId": 0,
      "inputModuleId": 11,
      "inputId": 4,
      "color": "#0986ad"
    }
  ]
}